<?xml version="1.0" standalone="no"?>
<!DOCTYPE svg PUBLIC "-//W3C//DTD SVG 1.1//EN" "http://www.w3.org/Graphics/SVG/1.1/DTD/svg11.dtd" >
<svg xmlns="http://www.w3.org/2000/svg">
<metadata>Generated by IcoMoon</metadata>
<defs>
<font id="icomoon" horiz-adv-x="1024">
<font-face units-per-em="1024" ascent="960" descent="-64" />
<missing-glyph horiz-adv-x="1024" />
<glyph unicode="&#x20;" horiz-adv-x="512" d="" />
<glyph unicode="&#xe900;" glyph-name="contact-list" d="M809.92-11.2c0.001-0.048 0.001-0.104 0.001-0.16 0-5.567-4.513-10.080-10.080-10.080 0 0-0.001 0-0.001 0h-659.84c-0.252-0.022-0.546-0.035-0.842-0.035-5.33 0-9.708 4.072-10.195 9.274l-0.003 0.041v904c0 0 0 0 0 0.001 0 8.305-1.406 16.282-3.993 23.705l0.153-0.505h656c15.661-0.090 28.322-12.806 28.322-28.48 0-0.113-0.001-0.225-0.002-0.338v0.017-375.52h42.56v375.36c0 0.096 0.001 0.21 0.001 0.324 0 39.042-31.423 70.744-70.358 71.195h-700.363c-5.020 1.58-10.794 2.491-16.78 2.491-12.137 0-23.399-3.743-32.695-10.138l0.195 0.127c-18.794-13.543-30.886-35.369-30.886-60.020 0-0.331 0.002-0.661 0.007-0.99l-0.001 0.050v-155.2c-0.016-0.486-0.026-1.056-0.026-1.629 0-27.756 22.017-50.369 49.538-51.328l0.088-0.002h35.68v-692.16c0-0.047 0-0.104 0-0.16 0-29.072 23.568-52.64 52.64-52.64 0 0 0 0 0 0h659.84c0.241-0.004 0.524-0.006 0.809-0.006 28.825 0 52.256 23.099 52.791 51.796l0.001 0.050v182.24h-42.56zM86.4 723.52h-35.68c-3.36 0-6.88 4.16-6.88 10.24v155.36c-0.009 0.277-0.013 0.602-0.013 0.929 0 10.083 4.664 19.077 11.952 24.943l0.062 0.048c2.375 1.712 5.343 2.738 8.551 2.738 0.257 0 0.512-0.007 0.765-0.020l-0.036 0.001v-2.72h8.96c7.462-4.859 12.327-13.161 12.327-22.599 0-0.211-0.002-0.422-0.007-0.632l0.001 0.031zM1016.64 460.16l-66.24 66.24c-3.842 3.799-9.127 6.146-14.96 6.146s-11.118-2.347-14.962-6.148l-330.558-330.558c-1.747-1.815-3.197-3.931-4.262-6.259l-0.058-0.141-55.040-121.12c-1.162-2.535-1.84-5.499-1.84-8.622 0-8.627 5.172-16.046 12.585-19.324l0.135-0.053c2.506-1.215 5.45-1.924 8.56-1.924s6.054 0.71 8.68 1.976l-0.12-0.052 121.12 55.68c2.469 1.123 4.585 2.573 6.407 4.327l-0.007-0.007 330.56 329.92c3.837 3.825 6.212 9.115 6.212 14.96s-2.374 11.135-6.211 14.959l-0.001 0.001zM592 102.4l19.040 42.56 22.72-22.72zM670.4 144.96l-35.36 35.84 224 224 36-36.8zM924.48 398.24l-36 36 47.040 47.040 36-36zM277.92 808.64h383.040v-42.56h-383.040v42.56zM277.92 659.68h383.040v-42.56h-383.040v42.56zM277.92 510.72h383.040v-42.56h-383.040v42.56zM277.92 361.6h170.24v-42.56h-170.24v42.56zM512 361.6h42.56v-42.56h-42.56v42.56zM618.4 361.6h42.56v-42.56h-42.56v42.56z" />
<glyph unicode="&#xe901;" glyph-name="twitter-circle" d="M512 960c-282.72 0-512-229.28-512-512s229.28-512 512-512 512 229.28 512 512c-0.8 282.4-229.6 511.2-512 512zM765.92 576.32v-16.96c0.16-202.88-164.32-367.36-367.2-367.36-1.92 0-3.84 0-5.76 0-71.040-0.16-140.64 19.84-200.8 57.76 10.56-0.8 20.32-1.6 30.88-1.6 58.88-0.32 116.16 19.040 162.56 55.2-55.84 0.64-104.96 36.48-122.72 89.44 8-1.6 16.16-2.4 24.32-2.4 11.84-0.16 23.52 1.6 34.88 4.8-60 12.64-103.040 65.44-103.2 126.72v1.6c17.92-10.080 37.92-15.68 58.56-16.16-57.76 37.12-75.68 113.28-40.64 172.32 67.2-80.8 164.96-129.6 269.76-134.88-2.24 9.6-3.36 19.36-3.2 29.12 0.32 71.68 58.88 129.6 130.56 129.28 0.16 0 0.16 0 0.32 0 36.16 0 70.72-14.56 95.84-40.64 29.28 5.44 57.44 16.16 82.88 31.68-10.080-29.92-30.56-55.36-57.76-71.52 26.080 2.88 51.52 9.76 75.52 20.32-17.44-26.080-39.36-48.48-64.8-66.72z" />
<glyph unicode="&#xe902;" glyph-name="superbuscado-iso-circle" d="M670.24 469.76c-14.080 0-26.4-4.48-36.96-13.44-17.28-14.72-25.92-39.2-25.92-73.44 0-24.48 5.44-44.48 16.16-59.84s26.56-23.2 47.36-23.2 36.16 7.68 46.4 23.2c10.24 15.52 15.36 36.16 15.36 62.080 0 24-4.96 44-15.040 60.32-10.24 16.32-25.92 24.32-47.36 24.32zM512 960c-282.72 0-512-229.28-512-512s229.28-512 512-512 512 229.28 512 512-229.28 512-512 512zM342.88 90.4c-27.040 0-48.96 21.92-48.96 48.96s21.92 48.96 48.96 48.96c27.040 0 48.96-21.92 48.96-48.96s-21.92-48.96-48.96-48.96zM441.28 263.84c-20.64-17.6-52.64-26.4-95.84-26.4-44.16 0-76.64 9.28-97.76 27.84-20.96 18.56-31.52 42.24-31.52 71.040h74.24c1.6-12.96 4.96-22.24 10.080-27.68 9.12-9.76 25.92-14.72 50.56-14.72 14.4 0 25.92 2.080 34.4 6.4s12.8 10.72 12.8 19.2c0 8.16-3.36 14.4-10.24 18.72s-32.48 11.68-76.64 22.080c-31.84 7.84-54.24 17.76-67.2 29.6-12.96 11.68-19.52 28.48-19.52 50.4 0 25.92 10.24 48.16 30.56 66.72s48.96 27.84 85.92 27.84c35.040 0 63.52-7.040 85.6-20.96s34.72-38.080 37.92-72.32h-73.28c-0.96 9.44-3.68 16.8-8 22.4-8.16 9.92-21.76 14.88-41.28 14.88-16 0-27.36-2.56-34.080-7.52s-10.24-10.72-10.24-17.44c0-8.32 3.68-14.4 10.88-18.24 7.2-4 32.64-10.72 76.48-20.32 29.12-6.88 51.040-17.28 65.6-31.040 14.4-14.080 21.6-31.68 21.6-52.64 0-27.52-10.4-50.24-31.040-67.84zM669.28 90.4c-27.040 0-48.96 21.92-48.96 48.96s21.92 48.96 48.96 48.96 48.96-21.92 48.96-48.96c0-27.040-21.92-48.96-48.96-48.96zM774.4 278.080c-22.4-26.4-50.080-36.96-82.56-39.68-59.36-5.12-92 11.2-116.48 35.68-26.56 26.56-40.8 61.12-40.8 110.080 0 15.040 0 42.56 0.16 73.6v82.56c0 97.92-28.48 195.84-191.68 195.84v69.44c240.64 0 264.48-169.92 266.24-253.12 0-0.48 0.16-0.96 0.16-1.44v-59.36c8.16 13.12 18.88 23.52 32.16 31.040 13.12 7.52 28.32 11.2 45.28 11.2 36.8 0 66.24-13.76 88.32-41.12s32.96-64.96 32.96-112.8c-0.16-41.6-11.36-75.52-33.76-101.92z" />
<glyph unicode="&#xe903;" glyph-name="superbuscado-iso" d="M888.48 512c-31.52 39.2-73.6 58.88-126.4 58.88-24.32 0-45.92-5.28-64.8-16s-34.24-25.44-45.92-44.32v84.96c0 1.76-0.16 3.52-0.32 5.44-3.040 120.16-39.84 359.040-381.28 359.040v-99.36c233.76 0 274.56-140.16 274.56-280.48v-118.080c-0.16-44.48-0.16-84-0.16-105.6 0-70.080 20.32-119.68 58.4-157.76 35.040-35.040 81.76-58.4 166.88-51.2 46.72 4 86.24 18.88 118.24 56.8s48 86.56 48 145.92c0.16 68.64-15.68 122.56-47.2 161.76zM805.76 269.28c-14.56-22.24-36.8-33.28-66.4-33.28s-52.32 11.040-67.68 33.12c-15.52 22.080-23.2 50.72-23.2 85.76 0 49.12 12.32 84.16 37.12 105.28 15.2 12.8 32.8 19.2 52.96 19.2 30.72 0 53.12-11.52 67.52-34.72s21.6-52 21.6-86.24c0-37.28-7.36-66.88-21.92-89.12zM807.2 6.080c0-38.704-31.376-70.080-70.080-70.080s-70.080 31.376-70.080 70.080c0 38.704 31.376 70.080 70.080 70.080s70.080-31.376 70.080-70.080zM330.24 401.6c-62.72 13.76-99.2 23.36-109.44 29.12-10.4 5.44-15.52 14.080-15.52 26.080 0 9.6 4.8 17.92 14.56 24.96s26.080 10.72 48.96 10.72c27.84 0 47.52-7.2 59.040-21.28 6.080-7.84 9.92-18.56 11.36-32h104.8c-4.64 49.12-22.88 83.52-54.4 103.52s-72.48 29.92-122.56 29.92c-52.8 0-93.92-13.28-123.040-40-29.12-26.56-43.68-58.4-43.68-95.52 0-31.36 9.28-55.52 28-72.16 18.72-16.96 50.72-31.040 96.32-42.24 63.36-15.040 99.84-25.44 109.76-31.68 9.76-6.080 14.72-15.040 14.72-26.88 0-12.32-6.080-21.44-18.24-27.68-12.16-6.080-28.64-9.12-49.44-9.12-35.2 0-59.36 7.040-72.48 20.96-7.36 7.84-12.16 21.12-14.4 39.68h-106.4c0-41.28 15.040-75.2 45.12-101.76s76.8-40 140-40c61.92 0 107.68 12.64 137.28 37.76s44.48 57.6 44.48 97.28c0 30.24-10.24 55.36-30.88 75.52-20.8 20.16-52.16 35.040-93.92 44.8zM339.84 6.080c0-38.704-31.376-70.080-70.080-70.080s-70.080 31.376-70.080 70.080c0 38.704 31.376 70.080 70.080 70.080s70.080-31.376 70.080-70.080z" />
<glyph unicode="&#xe904;" glyph-name="star" d="M999.84 487.68c31.52 30.72 32.32 81.44 1.6 112.96-12.16 12.64-28.48 20.96-45.92 23.36l-244.16 35.52c-8 1.12-14.72 6.080-18.24 13.28l-109.28 221.28c-9.44 19.2-25.76 33.44-46.080 40.32s-41.92 5.44-61.12-4.16c-15.52-7.68-28.48-20.64-36.16-36.16l-109.12-221.28c-3.52-7.2-10.4-12.16-18.4-13.28l-244.16-35.52c-43.52-5.92-74.080-46.080-68.16-89.6 2.4-17.76 10.88-34.4 23.84-46.72l176.64-172.16c5.76-5.6 8.32-13.76 7.040-21.6l-41.6-243.2c-7.36-43.36 21.92-84.8 65.28-92.16 17.12-2.88 35.040 0 50.56 8l218.4 114.88c7.2 3.68 15.68 3.68 22.72 0l218.24-114.88c11.68-6.080 24.32-9.12 37.12-9.12 8 0 16 1.28 23.84 3.68 20.32 6.4 37.12 20.32 47.040 39.2 8.16 15.36 10.88 33.44 8 50.56l-41.76 243.040c-1.44 7.84 1.28 15.84 7.040 21.44l176.8 172.32zM760.96 293.28h-0.96l43.2-252c2.24-13.28-6.72-25.76-19.84-28.16-5.28-0.96-10.72 0-15.52 2.4l-218.4 114.72c-23.2 12.16-51.040 12.16-74.4 0l-218.24-114.72c-11.84-6.24-26.72-1.76-32.96 10.24-2.56 4.64-3.36 10.24-2.4 15.52l41.76 243.2c4.48 25.92-4 52.32-22.72 70.72l-176.8 172.16c-4.64 4.64-7.36 10.72-7.36 17.28s2.4 12.64 7.040 17.44c3.68 3.84 8.64 6.24 13.92 7.040l244.16 35.52c26.080 3.68 48.48 20.16 60.16 43.68l109.12 221.28c2.88 5.76 7.84 10.24 14.080 12.32 2.56 0.8 5.12 1.28 7.84 1.28 3.68 0 7.36-0.8 10.88-2.56 4.8-2.4 8.64-6.24 11.040-11.040l109.28-221.28c11.52-23.68 34.080-40 60.16-43.68l244.16-35.52c13.44-2.080 22.56-14.56 20.64-27.84-0.8-5.28-3.2-10.080-7.040-13.76l-177.12-172.32c-16.64-16.32-25.28-38.88-23.68-61.92z" />
<glyph unicode="&#xe905;" glyph-name="shopping-cart" d="M809.6 142.56c-56.16 0.32-101.92-44.96-102.24-101.28-0.32-56.16 44.96-101.92 101.28-102.24 56.16-0.32 101.92 44.96 102.24 101.28 0 0.16 0 0.32 0 0.48 0 56.16-45.28 101.6-101.28 101.76zM0.16 905.44c-1.6-26.4 18.4-49.12 44.8-50.88 1.92-0.16 3.84-0.16 5.76 0h50.56l182.080-386.56-65.76-122.080c-27.040-50.56-7.84-113.44 42.72-140.32 14.88-8 31.52-12.16 48.48-12.16h556.48c28.16 0 50.88 22.72 50.88 50.88s-22.72 50.88-50.88 50.88h-556.64l55.68 101.76h379.52c37.12-0.16 71.68 19.2 91.040 50.88l182.080 330.56c14.080 24.16 6.080 55.040-18.080 69.28-8.32 4.96-17.92 7.36-27.68 6.88h-748.8l-35.2 71.36c-9.12 17.12-26.24 28.64-45.6 30.4h-80.64c-29.44 3.84-56.48-16.8-60.48-46.24-0.16-1.6-0.32-3.040-0.32-4.64zM303.68 142.56c-56.16 0.32-101.92-44.96-102.24-101.28-0.32-56.16 44.96-101.92 101.28-102.24 56.16-0.32 101.92 44.96 102.24 101.28 0 0.16 0 0.32 0 0.48-0.16 56.16-45.28 101.6-101.28 101.76z" />
<glyph unicode="&#xe906;" glyph-name="shopping-basket" d="M512 446.368c11.84 0 21.28 9.6 21.28 21.28s-9.44 21.28-21.28 21.28c-11.84 0-21.28-9.6-21.28-21.28 0 0 0 0 0 0 0-11.84 9.44-21.28 21.28-21.28zM944 607.648h-118.24l-181.92 250.4c-16.96 28.48-53.76 37.92-82.24 20.96-27.84-16.48-37.6-52-22.080-80.48 0.48-0.8 0.96-1.6 1.6-2.4l142.72-188.48h-343.52l142.72 188.48c0.48 0.8 0.96 1.6 1.44 2.4 16.48 28.8 6.4 65.44-22.4 81.92s-65.44 6.4-81.92-22.4l-181.92-250.4h-118.24c-44.16 0-80-35.84-80-80 0-34.4 21.92-64.8 54.4-75.84 3.52-2.72 7.84-4.16 12.16-4.16 0.96 0 1.76 0 2.72-0.16 8.64-1.12 15.52-7.68 16.96-16.16l68.16-374.4c5.12-28.48 30.080-49.28 59.040-49.28h597.28c28.96 0 53.92 20.8 59.040 49.28l67.84 374.4c1.6 8.48 8.48 15.040 16.96 16.16 0.8 0.16 1.76 0.16 2.72 0.16 4.48 0 8.8 1.44 12.32 4.32 41.92 14.24 64.32 59.52 50.080 101.44-10.88 32.48-41.44 54.24-75.68 54.24v0zM573.92 819.008c-4.8 9.92-0.64 21.92 9.28 26.72 9.6 4.64 21.12 0.96 26.24-8.32 0.32-0.64 0.8-1.44 1.28-2.080l165.6-227.68h-42.24l-160.16 211.36zM413.28 835.328c0.48 0.64 0.96 1.28 1.28 2.080 5.44 9.6 17.6 12.96 27.2 7.52 9.12-5.12 12.64-16.48 8.16-25.92l-160-211.36h-42.24l165.6 227.68zM944 487.648h-352c-11.040 0-20-8.8-20-19.84s8.8-20 19.84-20c0 0 0 0 0.16 0h308.8c-1.12-3.040-1.92-6.080-2.4-9.28l-68-374.56c-1.76-9.44-10.080-16.48-19.68-16.48h-597.28c-9.6 0-17.92 6.88-19.68 16.48l-68 374.4c-0.64 3.2-1.44 6.24-2.4 9.28h308.64c11.040 0.32 19.68 9.44 19.52 20.48-0.32 10.72-8.8 19.2-19.52 19.52h-352c-22.080 0-40 17.92-40 40s17.92 40 40 40v0h864c22.080 0 40-17.92 40-40s-17.92-40-40-40v0zM512 413.008c-35.36 0-64-28.64-64-64v-170.56c-0.16-35.36 28.48-64.16 63.84-64.16 35.36-0.16 64.16 28.48 64.16 63.84 0 0.16 0 0.32 0 0.48v170.56c0 35.2-28.64 63.84-64 63.84 0 0 0 0 0 0v0zM533.28 178.288c0-11.84-9.6-21.28-21.28-21.28-11.84 0-21.28 9.6-21.28 21.28v170.72c0 11.84 9.6 21.28 21.28 21.28 11.84 0 21.28-9.6 21.28-21.28v-170.72zM710.24 114.288c35.36 0 64 28.64 64 64v170.56c-0.16 35.36-28.8 63.84-64.16 63.84-35.2-0.16-63.68-28.64-63.84-63.84v-170.56c0-35.2 28.64-63.84 64-64v0zM688.96 349.008c0 11.84 9.6 21.28 21.28 21.28 11.84 0 21.28-9.6 21.28-21.28v-170.56c0-11.84-9.6-21.28-21.28-21.28-11.84 0-21.28 9.6-21.28 21.28v170.56zM313.76 413.008c-35.36 0-64-28.64-64-64v-170.56c0-35.36 28.64-64 64-64s64 28.64 64 64v170.56c0 35.36-28.64 64-64 64 0 0 0 0 0 0v0zM335.040 178.288c0-11.84-9.6-21.28-21.28-21.28s-21.28 9.6-21.28 21.28v170.72c0 11.84 9.6 21.28 21.28 21.28s21.28-9.6 21.28-21.28v-170.72z" />
<glyph unicode="&#xe907;" glyph-name="search" d="M396.16 302.080c-149.28 0-270.4 121.12-270.4 270.4s121.12 270.4 270.4 270.4 270.4-121.12 270.4-270.4c0.64-148.64-119.36-269.76-268.16-270.4-0.64 0-1.44 0-2.24 0zM756.64 302.080h-48l-18.080 17.92c75.040 87.84 108 204.16 90.080 318.4-29.76 168.8-166.4 298.080-336.32 318.56-215.040 26.72-411.040-125.92-437.92-340.96-25.6-205.92 113.6-396.32 317.6-434.24 114.24-17.92 230.56 15.040 318.4 90.080l18.080-18.080v-48l252.48-252.16c25.44-24.32 65.92-23.2 90.080 2.24 23.36 24.64 23.36 63.2 0 87.84l-246.4 258.4z" />
<glyph unicode="&#xe908;" glyph-name="save-money" d="M523.888 401.12c-1.92 0.48-3.84 0.48-5.76 0.16-19.2 2.24-33.76 18.56-33.76 37.92 0 9.28-7.52 16.8-16.8 16.8s-16.8-7.52-16.8-16.8c0-32.32 21.6-60.64 52.8-69.12v-16.8c0-9.28 7.52-16.8 16.8-16.8s16.8 7.52 16.8 16.8v15.84c38.72 8.16 63.68 46.080 55.52 84.96-7.040 33.28-36.32 56.96-70.24 56.96-21.12 0-38.080 17.12-38.080 38.080 0 21.12 17.12 38.080 38.080 38.080s38.080-17.12 38.080-38.080c0-9.28 7.52-16.8 16.8-16.8s16.8 7.52 16.8 16.8c0 33.92-23.84 63.2-56.96 70.24v15.36c0 9.28-7.52 16.8-16.8 16.8s-16.8-7.52-16.8-16.8v0-16.32c-38.24-10.4-60.64-49.92-50.24-88.16 8.48-31.2 36.8-52.8 69.28-52.8 21.12-0.16 37.92-17.28 37.76-38.4-0.16-20.32-16.16-36.96-36.48-37.92v0zM278.928 492.8c0-134.56 109.12-243.52 243.52-243.52 134.56 0 243.52 109.12 243.52 243.52 0 134.56-109.12 243.52-243.52 243.52-134.4 0.16-243.52-108.96-243.52-243.52v0zM522.448 702.88c116 0 209.92-94.080 209.92-209.92 0-116-94.080-209.92-209.92-209.92-116 0-209.92 94.080-209.92 209.92v0c0 115.84 94.080 209.92 209.92 209.92zM848.848 207.84l-131.52-62.24c-18.24 33.76-52.96 55.36-91.36 56.32l-121.44 3.36c-19.2 0.48-38.080 5.44-55.2 14.24l-12.32 6.4c-63.36 32.96-138.72 32.96-201.92-0.16l0.8 28c0.32 9.28-7.040 16.96-16.32 17.28 0 0 0 0 0 0l-133.12 3.68c-9.28 0.32-16.96-7.040-17.28-16.32l-8-292.32c-0.32-9.28 7.040-16.96 16.32-17.28 0 0 0 0 0 0l133.6-3.68c9.12 0 16.48 7.2 16.8 16.32l0.32 13.92 34.56 18.56c13.6 7.36 29.44 9.12 44.32 4.8l206.56-58.080c0.32-0.16 0.8-0.16 1.12-0.32 14.88-3.2 30.080-4.64 45.44-4.64 32.32 0 64.32 6.88 93.6 20.48 0.8 0.32 1.44 0.64 2.080 1.12l299.52 193.76c7.52 4.8 9.92 14.56 5.44 22.4-22.24 39.68-71.52 54.72-112 34.4v0zM95.088-17.92l7.040 258.72 99.68-2.72-7.2-258.72-99.52 2.72zM638.608-13.6c-36.48-16.48-77.28-20.96-116.48-12.96l-206.080 57.92c-23.2 6.56-48 3.84-69.28-7.52l-17.76-9.44 4.8 172c56 37.28 127.84 41.12 187.52 10.080l12.32-6.4c21.6-11.2 45.44-17.28 69.76-18.080l121.44-3.36c34.080-0.96 63.040-25.28 70.080-58.72l-180.96 5.12c-9.28 0.32-16.96-7.040-17.28-16.32s7.040-16.96 16.32-17.28v0l200.16-5.44c9.12 0 16.48 7.2 16.8 16.32 0.16 7.36-0.32 14.56-1.6 21.76l135.2 64c19.2 9.76 42.24 6.4 58.080-8.16l-283.040-183.52zM539.248 783.68v159.52c0 9.28-7.52 16.8-16.8 16.8s-16.8-7.52-16.8-16.8v-159.52c0-9.28 7.52-16.8 16.8-16.8s16.8 7.52 16.8 16.8v0zM665.328 783.68v75.52c0 9.28-7.52 16.8-16.8 16.8s-16.8-7.52-16.8-16.8v-75.52c0-9.28 7.52-16.8 16.8-16.8s16.8 7.52 16.8 16.8v0zM413.328 783.68v75.52c0 9.28-7.52 16.8-16.8 16.8s-16.8-7.52-16.8-16.8v-75.52c0-9.28 7.52-16.8 16.8-16.8s16.8 7.52 16.8 16.8v0 0z" />
<glyph unicode="&#xe909;" glyph-name="plus-circle" d="M512 960c-282.72 0-512-229.28-512-512s229.28-512 512-512 512 229.28 512 512c-0.8 282.4-229.6 511.2-512 512zM687.68 414.24c-0.48 0-1.12 0-1.6 0h-140.32v-140.32c0.48-18.24-14.080-33.44-32.32-33.92-0.48 0-1.12 0-1.6 0-18.24-0.48-33.44 14.080-33.92 32.32 0 0.48 0 1.12 0 1.6v140.32h-140.32c-18.24-0.48-33.44 14.080-33.92 32.32 0 0.48 0 1.12 0 1.6-0.48 18.24 14.080 33.44 32.32 33.92 0.48 0 1.12 0 1.6 0h140.32v140.32c0.16 18.72 15.52 33.76 34.24 33.44 18.4-0.16 33.28-15.040 33.44-33.44v-140.32h140.32c18.24 0.48 33.44-14.080 33.92-32.32 0-0.48 0-1.12 0-1.6 0.64-18.24-13.76-33.44-32.16-33.92z" />
<glyph unicode="&#xe90a;" glyph-name="piggy-bank" d="M860.96 313.216c-0.8 7.84-7.84 13.6-15.68 12.8-7.68-0.8-13.28-7.36-12.96-15.040 0.64-8.16 0.96-16.48 0.96-24.8 0-177.6-144-321.6-321.6-321.44s-321.6 144-321.44 321.6c0 59.84 16.8 118.56 48.32 169.44 1.12 1.76 1.76 3.84 2.080 5.92l23.52 199.52 136.96-68.48c3.36-1.76 7.2-1.92 10.88-0.8 64.96 21.12 134.88 21.12 199.68 0 3.52-1.12 7.52-0.8 10.88 0.8l136.96 68.48 23.52-199.52c0.32-2.080 0.96-4.16 2.080-5.92 16.16-25.92 28.64-54.24 36.8-83.68 2.24-7.52 10.24-11.84 17.92-9.6 7.36 2.24 11.68 9.76 9.76 17.28-8.64 31.040-21.44 60.8-38.24 88.48l-25.44 216.64c-1.12 7.84-8.32 13.44-16.16 12.48-1.6-0.16-3.040-0.64-4.32-1.28l-150.080-75.040c-67.2 20.64-139.040 20.64-206.24 0l-150.080 75.040c-7.2 3.52-15.84 0.48-19.36-6.72-0.64-1.44-1.12-2.88-1.28-4.32l-25.44-216.64c-62.88-103.36-67.84-231.84-13.28-339.84 0.16-0.8 0.32-1.76 0.64-2.56l69.44-180.64c2.080-5.6 7.36-9.12 13.28-9.12h45.76c6.24 0 11.84 4.16 13.76 10.080l8.96 28.96c100.8-52.16 220.48-52.16 321.28 0l8.96-28.96c1.92-6.080 7.36-10.080 13.76-10.080h45.76c5.92 0 11.2 3.68 13.28 9.12l70.080 182.4c0.16 0.64 0.48 1.28 0.48 1.92 24.48 48.64 37.12 102.4 37.12 156.8-0.16 8.8-0.64 17.76-1.28 26.72zM318.080-35.264h-25.44l-28.64 74.4c18.72-18.72 39.36-35.2 61.76-49.28l-7.68-25.12zM731.040-35.264h-25.44l-7.68 24.96c22.4 14.080 43.040 30.56 61.76 49.28l-28.64-74.24zM745.28 498.816c8 0.16 14.4 6.56 14.24 14.56 0 0.48 0 0.96-0.16 1.44l-11.84 100c-1.12 7.84-8.32 13.44-16.16 12.48-1.6-0.16-3.040-0.64-4.32-1.28l-82.4-41.12c-7.040-3.68-9.76-12.48-6.080-19.52 1.12-2.24 2.88-4.16 4.96-5.44l94.080-58.88c2.4-1.6 4.96-2.24 7.68-2.24zM680.32 570.496l41.28 20.64 5.92-50.080-47.2 29.44zM386.72 572.576c-0.32 5.12-3.2 9.76-7.84 12.16l-82.4 41.12c-7.2 3.52-15.84 0.48-19.36-6.72-0.64-1.44-1.12-2.88-1.28-4.32l-11.84-100c-0.8-8 4.96-15.040 12.96-15.84 3.040-0.32 6.24 0.32 8.8 1.92l94.080 58.88c4.64 2.72 7.2 7.68 6.88 12.8zM296 541.056l5.92 50.080 41.28-20.64-47.2-29.44zM679.68 394.016c7.84 0 14.24 6.4 14.24 14.24v0c-0.32 24.8-20.8 44.48-45.44 44.16-24.32-0.32-43.84-20-44.16-44.16 0.16-7.84 6.72-14.080 14.72-13.92 7.68 0.16 13.76 6.4 13.92 13.92 0.16 8.96 7.68 16 16.64 15.84 8.64-0.16 15.68-7.2 15.84-15.84 0-7.84 6.4-14.24 14.24-14.24zM343.84 394.016c7.84 0 14.24 6.4 14.24 14.24 0.16 8.96 7.68 16 16.64 15.84 8.64-0.16 15.68-7.2 15.84-15.84 0.16-7.84 6.72-14.080 14.72-13.92 7.68 0.16 13.76 6.4 13.92 13.92-0.32 24.8-20.8 44.48-45.44 44.16-24.32-0.32-43.84-20-44.16-44.16 0-7.84 6.4-14.24 14.24-14.24zM511.84 226.176c58.4 0 105.92 37.28 105.92 83.040s-47.52 83.040-105.92 83.040-105.92-37.28-105.92-83.040 47.52-83.040 105.92-83.040zM511.84 363.616c42.56 0 77.28-24.48 77.28-54.4s-34.72-54.4-77.28-54.4-77.28 24.48-77.28 54.4c0 29.92 34.72 54.4 77.28 54.4zM452.8 296.096c3.040-7.36 11.36-10.72 18.72-7.68s10.72 11.36 7.68 18.72c-3.040 7.36-11.36 10.72-18.72 7.68-0.64-0.32-1.28-0.64-1.92-0.96-5.92-3.68-8.32-11.2-5.76-17.76zM544.48 296.096c3.040-7.36 11.36-10.72 18.72-7.68s10.72 11.36 7.68 18.72c-3.040 7.36-11.36 10.72-18.72 7.68-0.8-0.32-1.6-0.8-2.4-1.28-5.76-3.84-7.84-11.2-5.28-17.44zM366.24 209.856c87.84-59.68 203.2-59.68 290.88 0 6.56 4.48 8.16 13.28 3.84 19.84-4.48 6.56-13.28 8.16-19.84 3.84-78.080-53.12-180.64-53.12-258.72 0-6.56 4.32-15.52 2.56-19.84-4.16-4.16-6.4-2.56-15.040 3.68-19.52v0zM954.56 473.536h-11.2v11.2c0 10.56-8.64 19.36-19.36 19.36-10.56 0-19.36-8.64-19.36-19.36v-11.2h-11.2c-10.56 0-19.36-8.64-19.36-19.36 0-10.56 8.64-19.36 19.36-19.36h11.2v-11.2c0-10.56 8.64-19.36 19.36-19.36s19.36 8.64 19.36 19.36v11.2h11.2c10.56 0 19.36 8.64 19.36 19.36s-8.64 19.36-19.36 19.36zM771.36 855.136h-11.2v11.2c0 10.56-8.64 19.36-19.36 19.36-10.56 0-19.36-8.64-19.36-19.36v-11.2h-11.36c-5.12-0.16-9.92-2.24-13.44-6.080-3.52-3.68-5.44-8.64-5.28-13.76 0.32-10.24 8.48-18.56 18.72-18.72h11.36v-11.2c0-10.56 8.64-19.36 19.36-19.36 10.56 0 19.36 8.64 19.36 19.36v11.2h11.36c5.12 0.16 9.92 2.24 13.44 6.080 3.52 3.68 5.44 8.64 5.28 13.76-0.32 10.24-8.48 18.4-18.88 18.72zM130.24 565.056v0h-11.36v11.2c0 10.56-8.64 19.36-19.36 19.36s-19.36-8.64-19.36-19.36v-11.2h-11.36c-10.56-0.32-19.040-9.12-18.72-19.84 0.32-10.24 8.48-18.56 18.88-18.72h11.2v-11.2c0-10.56 8.64-19.36 19.36-19.36 10.56 0 19.36 8.64 19.36 19.36v11.2h11.36c5.12 0.16 9.92 2.24 13.44 6.080 3.52 3.68 5.44 8.64 5.28 13.76-0.16 10.24-8.48 18.4-18.72 18.72zM513.92 778.816c-0.96 0.16-1.92 0.32-3.040 0.16-10.080 1.12-17.76 9.76-17.76 19.84 0 4.8-4 8.8-8.8 8.8s-8.8-4-8.8-8.8c0-16.96 11.36-31.84 27.68-36.32v-8.8c0-4.8 4-8.8 8.8-8.8s8.8 4 8.8 8.8v8.32c20.32 4.32 33.28 24.32 28.96 44.8-3.68 17.28-19.040 29.76-36.64 29.76-11.040 0-20 8.96-20 20s8.96 20 20 20c11.040 0 20-8.96 20-20 0 0 0 0 0 0 0-4.8 4-8.8 8.8-8.8s8.8 4 8.8 8.8c0 17.76-12.48 33.28-29.92 36.96v8c0 4.8-4 8.8-8.8 8.8s-8.8-4-8.8-8.96v-8.64c-20-5.44-31.84-26.24-26.4-46.24 4.48-16.32 19.36-27.68 36.32-27.68 11.040 0 20-8.8 20.16-19.84 0-10.88-8.48-19.84-19.36-20.16v0zM513.12 959.936c-73.28 0-132.96-59.68-132.96-132.96s59.68-132.96 132.96-132.96 132.96 59.68 132.96 132.96-59.68 132.96-132.96 132.96zM618.4 827.136c0-58.080-47.2-105.28-105.28-105.28s-105.28 47.2-105.28 105.28 47.2 105.28 105.28 105.28 105.28-47.2 105.28-105.28z" />
<glyph unicode="&#xe90b;" glyph-name="location" d="M512 960c-199.68 1.28-362.56-159.68-363.84-359.36 0-1.44 0-3.040 0-4.48 0-229.28 261.92-556 341.28-649.6 11.84-13.92 33.28-13.92 45.12 0 79.36 93.76 341.28 420.32 341.28 649.6 1.28 199.68-159.68 362.56-359.36 363.84-1.44 0-3.040 0-4.48 0zM252.16 596.16c-1.44 142.080 112.64 258.4 254.72 259.84 1.76 0 3.36 0 5.12 0 142.080 1.44 258.4-112.64 259.84-254.72 0-1.76 0-3.36 0-5.12 0-142.24-134.24-349.44-241.12-490.24-9.44-12.48-28-12.48-37.44 0-106.88 141.44-241.12 352.8-241.12 490.24zM641.92 596.16c0-80.32-72.8-143.52-156-127.36-50.72 9.92-91.52 50.72-101.28 101.28-16.16 83.2 47.040 156 127.36 156 71.040 0.64 129.28-56.32 129.92-127.36 0-0.96 0-1.76 0-2.56z" />
<glyph unicode="&#xe90c;" glyph-name="instagram-circle" d="M602.56 513.76c-35.52 50.24-104.96 62.24-155.2 26.72-10.4-7.36-19.36-16.32-26.72-26.72-13.6-19.2-20.96-42.24-21.12-65.76 0.96-61.92 51.84-111.36 113.76-110.4 60.64 0.96 109.44 49.76 110.4 110.4-0.16 23.52-7.52 46.56-21.12 65.76zM673.28 512.96c8.8-20.48 13.28-42.72 12.96-64.96-1.12-96.48-80.16-173.6-176.64-172.48-94.88 1.12-171.52 77.6-172.64 172.48-0.32 22.4 4.16 44.48 12.96 64.96h-98.24v-260.64c0.96-35.040 29.12-63.2 64.16-64.16h391.36c35.040 0.96 63.2 29.12 64.16 64.16v260.64h-98.080zM742.24 693.28h-94.24v-108h107.2v108.8l-12.96-0.8zM512 960c-282.72 0-512-229.28-512-512s229.28-512 512-512 512 229.28 512 512c-0.8 282.4-229.6 511.2-512 512zM828.32 513.76v-261.44c0.96-65.92-51.68-120-117.44-120.96-1.12 0-2.4 0-3.52 0h-391.52c-65.92-0.96-120 51.68-120.96 117.44 0 1.12 0 2.24 0 3.52v391.52c-0.96 65.92 51.84 120 117.6 120.8 1.12 0 2.24 0 3.36 0h391.36c65.92 0.96 120.16-51.52 121.12-117.44 0-1.12 0-2.24 0-3.52v-129.92z" />
<glyph unicode="&#xe90d;" glyph-name="happy-container" d="M923.84 610.88l-147.84 197.28v66.88c0 46.88-38.080 84.96-84.96 84.96h-358.080c-46.88 0-84.96-38.080-84.96-84.96v-66.72l-147.84-197.28c-4.64-6.24-7.040-13.6-7.040-21.28v-560.48c0-51.52 41.76-93.12 93.28-93.28h651.52c51.36 0 93.12 41.76 93.28 93.12v560.48c-0.16 7.68-2.72 15.2-7.36 21.28zM332.96 917.6h357.92c23.52 0 42.56-19.040 42.56-42.56v-52.64h-443.2v52.8c0.16 23.36 19.2 42.4 42.72 42.4zM888.48 29.12c0-28-22.72-50.72-50.88-50.88h-651.36c-28 0-50.72 22.72-50.88 50.88v558.080l144.32 192.64h464.48l144.32-192.64v-558.080zM304.16 420.48c-13.28 0-24.16-10.88-24.16-24.16v-37.6c0-13.44 10.88-24.32 24.32-24.32s24.32 10.88 24.32 24.32v37.6c-0.16 13.28-11.040 24.16-24.48 24.16zM719.68 420.48c-13.28 0-24.16-10.88-24.16-24.16v-37.6c0-13.44 10.88-24.32 24.32-24.32s24.32 10.88 24.32 24.32v37.6c-0.16 13.28-11.040 24.16-24.48 24.16zM544.96 377.28c-16.96-18.24-45.44-19.36-63.68-2.4-0.8 0.8-1.6 1.6-2.4 2.4-8.8 10.080-24.16 11.040-34.24 2.24s-11.040-24.16-2.24-34.24c17.6-19.84 43.040-31.2 69.6-31.040 26.56-0.16 51.84 11.040 69.44 31.040 8.8 10.080 7.84 25.44-2.24 34.24s-25.44 7.84-34.24-2.24z" />
<glyph unicode="&#xe90e;" glyph-name="gmail" d="M10.24 447.84c1.6 284.32 233.44 513.6 517.76 512.16 123.52-0.64 242.88-45.76 336-127.040-41.92-45.92-84.48-91.52-129.92-133.92-90.080 54.56-197.92 96.16-302.88 59.2-170.4-53.6-265.28-235.2-211.68-405.6s235.2-265.28 405.6-211.68c8.16 2.56 16.16 5.44 24 8.64 83.040 34.56 144.8 106.56 166.4 193.92-97.92 1.92-195.68 0.8-293.6 3.52-0.32 58.24-0.48 116.16-0.32 174.24 163.2 0.32 326.56 0.8 489.92-0.64 9.92-142.56-11.040-295.2-103.84-409.76-126.88-163.36-361.44-211.36-552.16-147.2-206.72 70.88-345.44 265.44-345.28 484.16v0z" />
<glyph unicode="&#xe90f;" glyph-name="facebook-circle" d="M512 960c-282.72 0-512-229.28-512-512s229.28-512 512-512 512 229.28 512 512c-0.8 282.4-229.6 511.2-512 512zM649.44 448h-96.64v-316.96h-121.92v316.96h-64.96v130.080h56.96v55.2c0 52 26.080 134.080 135.68 134.080h100v-108.16h-70.72c-11.36 0-26.72-7.36-26.72-32.48v-48.8h100l-11.68-129.92z" />
<glyph unicode="&#xe910;" glyph-name="exit-circle" d="M732.16 227.84c-18.88-19.84-50.24-20.48-69.92-1.76-0.64 0.48-1.12 1.12-1.76 1.76l-148.48 148.48-148.48-148.48c-18.88-19.84-50.24-20.48-69.92-1.76-0.64 0.48-1.12 1.12-1.76 1.76-19.84 18.88-20.48 50.24-1.76 69.92 0.48 0.64 1.12 1.12 1.76 1.76l148.48 148.48-148.48 148.48c-19.84 18.88-20.48 50.24-1.76 69.92 0.48 0.64 1.12 1.12 1.76 1.76 18.88 19.84 50.24 20.48 69.92 1.76 0.64-0.48 1.12-1.12 1.76-1.76l148.48-148.48 148.48 148.48c20 19.52 52.16 19.2 71.68-0.8 19.36-19.68 19.36-51.2 0-70.88l-148.48-148.48 148.48-148.48c19.84-18.88 20.48-50.24 1.76-69.92-0.64-0.64-1.12-1.28-1.76-1.76zM512 960c-282.72 0-512-229.28-512-512s229.28-512 512-512 512 229.28 512 512c-0.8 282.4-229.6 511.2-512 512z" />
<glyph unicode="&#xe911;" glyph-name="balance" d="M836.32 822.080c66.24 0.32 119.68 54.4 119.52 120.64 0 0 0 0.16 0 0.16 0 9.44-7.68 17.12-17.12 17.12h-853.44c0 0-0.16 0-0.16 0-9.44-0.16-16.96-7.84-16.8-17.28-0.16-66.24 53.28-120.16 119.52-120.64h272.96v-62.56c-179.84-23.52-322.4-170.080-336.48-355.36l-38.72-449.44c-0.48-4.8 1.12-9.6 4.48-13.12 3.040-3.52 7.68-5.6 12.48-5.6h818.88c4.8 0 9.28 2.080 12.64 5.6 3.2 3.52 4.8 8.32 4.48 13.12l-38.72 449.44c-14.24 185.28-156.8 331.84-336.48 355.52v62.4h272.96zM104.16 925.6h815.84c-8-40-42.88-68.8-83.68-68.96h-648.64c-40.64 0.16-75.68 28.96-83.52 68.96zM865.76 401.12l37.12-430.72h-781.76l37.12 430.72c14.080 184.8 168.32 327.68 353.76 327.52 185.44 0.16 339.68-142.72 353.76-327.52zM528.96 762.72c-5.6 0.16-11.2 0.32-16.96 0.32-5.6 0-11.2-0.16-16.8-0.32v59.36h33.76v-59.36zM197.6 345.28c2.24-171.36 143.040-308.32 314.4-305.92 170.080 1.44 306.88 140.16 305.92 310.080 0 1.44 0 2.88 0 4.32-2.4 171.36-143.2 308.16-314.4 305.92s-308.32-143.2-305.92-314.4zM783.36 362.88h-32.8c-9.44 0-17.28-7.68-17.28-17.28s7.68-17.28 17.28-17.28h32.16c-4.64-61.76-29.44-117.6-68-161.12l-21.92 21.92c-6.72 6.72-17.6 6.72-24.32 0s-6.72-17.6 0-24.32l21.92-21.92c-43.68-38.56-99.52-63.52-161.12-68.16v33.6c0 9.44-7.68 17.28-17.28 17.28-9.44 0-17.28-7.68-17.28-17.28v-33.76c-62.88 3.040-120.16 26.88-165.12 64.96 0.48 0.32 1.12 0.48 1.44 0.96l24.32 24.32c6.72 6.72 6.72 17.6 0 24.32s-17.6 6.72-24.32 0l-24.32-24.32c-0.48-0.48-0.8-1.28-1.28-1.92-41.12 44.64-67.68 102.56-72.16 166.56 1.76-0.64 3.68-1.12 5.6-1.12h34.4c9.44 0 17.28 7.68 17.28 17.28s-7.68 17.28-17.28 17.28h-34.4c-2.080 0-4-0.48-5.92-1.12 2.88 65.92 28.8 125.6 69.76 171.52 0.8-2.4 2.080-4.64 4-6.56l24.32-24.32c6.72-6.72 17.6-6.72 24.32 0s6.72 17.6 0 24.32l-24.32 24.32c-1.92 1.92-4.16 3.040-6.4 4 45.92 41.12 105.6 66.88 171.36 69.76-0.64-1.92-1.12-3.84-1.12-5.92v-34.4c0-9.44 7.68-17.28 17.28-17.28 9.44 0 17.28 7.68 17.28 17.28v34.4c0 1.92-0.48 3.84-1.12 5.6 64.48-4.32 122.56-30.72 167.2-71.84-0.8-0.64-1.76-0.96-2.4-1.6l-24.32-24.32c-6.72-6.72-6.72-17.6 0-24.32s17.6-6.72 24.32 0l24.32 24.32c0.64 0.64 0.8 1.28 1.28 1.92 38.080-45.28 61.92-102.72 64.64-165.76zM528.48 375.68c0.16 1.12 0.64 2.24 0.64 3.36v137.92c0 9.44-7.68 17.28-17.28 17.28-9.44 0-17.28-7.68-17.28-17.28v-137.92c0-1.12 0.48-2.24 0.64-3.36-10.56-5.92-17.92-17.12-17.92-30.080 0-19.040 15.36-34.4 34.4-34.4s34.4 15.36 34.4 34.4c0.32 13.12-6.88 24.32-17.6 30.080z" />
<glyph unicode="&#xe912;" glyph-name="arrow-up" d="M155.2 173.6l356.64 356.64 356.64-356.64c33.76-35.36 89.6-36.64 124.96-3.040 0.96 0.96 2.080 1.92 3.040 3.040 35.36 33.76 36.64 89.6 3.040 124.96-0.96 0.96-1.92 2.080-3.040 3.040l-420.48 420.8c-33.76 35.36-89.6 36.64-124.96 3.040-0.96-0.96-2.080-1.92-3.040-3.040l-420.8-420.64c-35.68-34.88-36.48-92.32-1.44-128s92.32-36.48 128-1.44c0.48 0.32 0.96 0.8 1.44 1.28z" />
<glyph unicode="&#xe913;" glyph-name="arrow-right" d="M237.6 804.8l356.64-356.64-356.64-356.64c-35.36-33.76-36.64-89.6-3.040-124.96 0.96-0.96 1.92-2.080 3.040-3.040 33.76-35.36 89.6-36.64 124.96-3.040 0.96 0.96 2.080 1.92 3.040 3.040l420.8 420.48c35.36 33.76 36.64 89.6 3.040 124.96-0.96 0.96-1.92 2.080-3.040 3.040l-420.64 420.8c-34.88 35.68-92.32 36.48-128 1.44s-36.48-92.32-1.44-128c0.32-0.48 0.8-0.96 1.28-1.44z" />
<glyph unicode="&#xe914;" glyph-name="arrow-left" d="M786.4 91.2l-356.64 356.64 356.64 356.64c35.36 33.76 36.64 89.6 3.040 124.96-0.96 0.96-1.92 2.080-3.040 3.040-33.76 35.36-89.6 36.64-124.96 3.040-0.96-0.96-2.080-1.92-3.040-3.040l-420.8-420.48c-35.36-33.76-36.64-89.6-3.040-124.96 0.96-0.96 1.92-2.080 3.040-3.040l420.64-420.8c34.88-35.68 92.32-36.48 128-1.44 35.68 34.88 36.48 92.32 1.44 128-0.32 0.48-0.8 0.96-1.28 1.44z" />
<glyph unicode="&#xe915;" glyph-name="arrow-down" d="M868.8 722.4l-356.64-356.64-356.64 356.64c-33.76 35.36-89.6 36.64-124.96 3.040-0.96-0.96-2.080-1.92-3.040-3.040-35.36-33.76-36.64-89.6-3.040-124.96 0.96-0.96 1.92-2.080 3.040-3.040l420.48-420.8c33.76-35.36 89.6-36.64 124.96-3.040 0.96 0.96 2.080 1.92 3.040 3.040l420.8 420.64c35.68 34.88 36.48 92.32 1.44 128-34.88 35.68-92.32 36.48-128 1.44-0.48-0.32-0.96-0.8-1.44-1.28z" />
</font>
</defs>
</svg>
